HIERARCHY
ROOT Hips
{
  OFFSET -35.2597 29.1586 114.425
  CHANNELS 6 Xposition Yposition Zposition Zrotation Xrotation Yrotation
  JOINT LeftUpLeg
  {
    OFFSET 8.64259 1.95398 -2.38835
    CHANNELS 3 Zrotation Xrotation Yrotation
    JOINT LeftLeg
    {
      OFFSET 43.7702 0 0
      CHANNELS 3 Zrotation Xrotation Yrotation
      JOINT LeftFoot
      {
        OFFSET 40.6238 0 0
        CHANNELS 3 Zrotation Xrotation Yrotation
        JOINT LeftToeBase
        {
          OFFSET 12.7242 0 0
          CHANNELS 3 Zrotation Xrotation Yrotation
          End Site
          {
            OFFSET 0 0 0
          }
        }
      }
    }
  }
  JOINT RightUpLeg
  {
    OFFSET -8.2249 1.95398 -2.59336
    CHANNELS 3 Zrotation Xrotation Yrotation
    JOINT RightLeg
    {
      OFFSET 43.5653 0 0
      CHANNELS 3 Zrotation Xrotation Yrotation
      JOINT RightFoot
      {
        OFFSET 40.6238 0 0
        CHANNELS 3 Zrotation Xrotation Yrotation
        JOINT RightToeBase
        {
          OFFSET 12.7242 0 0
          CHANNELS 3 Zrotation Xrotation Yrotation
          End Site
          {
            OFFSET 0 0 0
          }
        }
      }
    }
  }
  JOINT Spine
  {
    OFFSET 0.165834 0.87714 6.61349
    CHANNELS 3 Zrotation Xrotation Yrotation
    JOINT Spine1
    {
      OFFSET 7.38963 1.71661e-005 0
      CHANNELS 3 Zrotation Xrotation Yrotation
      JOINT Spine2
      {
        OFFSET 11.9445 1.14441e-005 0
        CHANNELS 3 Zrotation Xrotation Yrotation
        JOINT Spine3
        {
          OFFSET 14.7254 4.19617e-005 0
          CHANNELS 3 Zrotation Xrotation Yrotation
          JOINT Spine4
          {
            OFFSET 10.9679 0 0
            CHANNELS 3 Zrotation Xrotation Yrotation
            JOINT RightShoulder
            {
              OFFSET 2.46616 -1.6653 3.69651
              CHANNELS 3 Zrotation Xrotation Yrotation
              JOINT RightArm
              {
                OFFSET 13.0012 0 0
                CHANNELS 3 Zrotation Xrotation Yrotation
                JOINT RightForeArm
                {
                  OFFSET 28.7848 1.62311e-005 0
                  CHANNELS 3 Zrotation Xrotation Yrotation
                  JOINT RightHand
                  {
                    OFFSET 26.5688 1.62095e-005 0
                    CHANNELS 3 Zrotation Xrotation Yrotation
                    End Site
                    {
                      OFFSET 0 0 0
                    }
                  }
                }
              }
            }
            JOINT LeftShoulder
            {
              OFFSET 2.38034 -1.29275 -3.7523
              CHANNELS 3 Zrotation Xrotation Yrotation
              JOINT LeftArm
              {
                OFFSET 16.3182 6.07031e-005 0
                CHANNELS 3 Zrotation Xrotation Yrotation
                JOINT LeftForeArm
                {
                  OFFSET 27.0901 0 0
                  CHANNELS 3 Zrotation Xrotation Yrotation
                  JOINT LeftHand
                  {
                    OFFSET 24.5451 1.51738e-005 0
                    CHANNELS 3 Zrotation Xrotation Yrotation
                    End Site
                    {
                      OFFSET 0 0 0
                    }
                  }
                }
              }
            }
            JOINT Neck
            {
              OFFSET 5.0226 -0.0266342 0
              CHANNELS 3 Zrotation Xrotation Yrotation
              JOINT Head
              {
                OFFSET 6.69364 2.86102e-005 0
                CHANNELS 3 Zrotation Xrotation Yrotation
                End Site
                {
                  OFFSET 0 0 0
                }
              }
            }
          }
        }
      }
    }
  }
}
MOTION
Frames:	12
Frame Time:	0.0416667
13.8272 100.652 16.345 172.918 -81.0931 171.661 -174.606 -5.09039 89.4909 -12.3744 11.1215 0.511067 69.8283 6.76363 -2.61734 19.0037 -10.9529 9.23362 173.038 -6.09244 88.3642 -13.0839 -7.28536 -0.716492 68.2952 -4.96675 2.00075 26.0025 0.207621 3.03061 0.143147 7.90799 -90.0851 11.0581 0.245563 -0.192907 -0.612856 0.23683 -0.203535 -23.1481 0.292183 -0.110189 -3.13546 0.292183 -0.110192 87.784 -35.4722 -108.87 43.2732 7.68793 -4.19419 -5.4972 -44.9063 -5.56896 -20.6734 2.19773 -17.6264 -86.9258 -57.7816 84.5176 -24.6677 -12.9255 -15.8804 4.24535 49.8391 -5.32894 2.00623 -0.370422 -11.6811 0.462055 -2.7487 -2.23865 -4.09312 -2.43183 1.3361 
13.8814 100.656 16.4107 173.433 -81.0419 172.155 -174.648 -5.30396 89.4106 -12.2375 10.8502 0.542248 70.0047 6.8741 -2.76879 18.5491 -11.0179 8.87444 173.113 -6.0403 88.3184 -13.507 -9.88551 -0.922895 67.1874 -4.34554 1.22828 28.1071 0.15742 0.436551 0.159992 7.90735 -90.0913 11.0594 0.276164 -0.208356 -0.611528 0.266724 -0.220319 -23.1469 0.326009 -0.115726 -3.13422 0.32601 -0.115732 87.7657 -35.4417 -108.915 43.1807 7.80013 -3.88614 -5.55265 -45.3062 -5.60824 -22.1246 2.54049 -18.57 -87.0447 -58.0103 84.386 -24.5669 -12.9748 -15.8857 4.2268 49.6648 -5.30978 2.44341 -0.386343 -11.3944 0.795379 -2.58125 -1.21184 -4.78547 -2.36541 -0.308221 
13.8565 100.653 16.4838 173.231 -81.1501 171.836 -174.71 -5.3766 89.2838 -11.9979 10.9889 0.535181 69.9286 6.8975 -2.51408 18.7682 -10.9418 8.98037 173.072 -5.84124 88.2143 -13.7564 -9.45493 -0.937215 67.5306 -4.48342 1.52423 27.8393 0.213484 0.612826 0.145262 7.8971 -90.0983 11.0798 0.243567 -0.219224 -0.591095 0.233687 -0.229735 -23.1264 0.298188 -0.135885 -3.11372 0.298198 -0.135886 87.7714 -35.1225 -109.027 43.7305 7.58434 -3.85194 -5.51969 -45.0692 -5.58486 -23.4357 2.4495 -17.3116 -87.0344 -58.3145 84.4432 -24.3943 -13.0519 -16.0049 4.22305 49.6295 -5.30591 2.12526 -0.375253 -11.6123 0.981608 -2.49632 -1.02034 -5.0056 -2.30965 -0.215104 
13.8538 100.651 16.561 172.272 -81.1959 170.81 -174.766 -5.39646 89.2121 -11.9182 10.9926 0.565922 69.978 6.90921 -2.59588 18.7144 -10.9603 8.95411 173.035 -5.92272 88.1777 -13.5557 -9.53659 -0.929226 67.4682 -4.53906 1.06348 28.0516 -0.00602361 1.04297 0.124589 7.90353 -90.1116 11.067 0.196311 -0.240941 -0.603985 0.185523 -0.249357 -23.1392 0.259647 -0.170802 -3.1265 0.259652 -0.170802 87.8686 -34.7826 -108.98 43.5151 7.67456 -3.84225 -5.5327 -45.2561 -5.59298 -22.313 2.53066 -18.3918 -86.9924 -58.7192 84.5577 -24.2776 -13.0901 -16.3195 4.2506 49.8916 -5.33475 2.13691 -0.360219 -11.214 1.04025 -2.43965 -0.714388 -4.67795 -2.29452 -0.347812 
13.8591 100.652 16.602 173.357 -81.3952 171.855 -174.912 -5.3649 89.0496 -11.7292 10.5472 0.653385 69.954 6.87811 -2.67255 18.591 -11.0095 8.90389 172.991 -5.68656 88.099 -13.6755 -9.72719 -0.911149 67.4583 -4.49423 1.38019 28.0415 0.136794 0.585286 0.138471 7.89244 -90.0993 11.0892 0.229616 -0.219786 -0.581792 0.219723 -0.22969 -23.117 0.285058 -0.140616 -3.10439 0.285061 -0.140617 87.8018 -35.0166 -109.012 43.5048 7.66444 -3.90083 -5.58376 -45.9165 -5.62593 -22.7866 2.40865 -17.4792 -86.8976 -58.46 84.6513 -24.5003 -12.9823 -16.2776 4.20058 49.4061 -5.28166 2.23849 -0.376423 -11.4626 1.46609 -2.51703 -0.790636 -5.33917 -2.34583 -0.57787 
13.7938 100.629 16.6544 175.153 -81.4762 173.568 -174.863 -5.42128 89.0257 -11.6561 10.5643 0.563294 69.9595 6.8883 -2.66287 18.7503 -11.0966 9.19295 173.082 -5.6632 88.091 -13.6129 -9.93131 -1.03757 67.497 -4.54005 1.3744 28.1998 0.0447568 0.67073 0.165065 7.90095 -90.0832 11.0722 0.290017 -0.193623 -0.598741 0.281217 -0.20621 -23.1341 0.334794 -0.0975095 -3.12148 0.334798 -0.0975193 87.6979 -35.2445 -109.114 43.1657 7.79624 -3.9281 -5.67164 -47.032 -5.68359 -22.5313 2.49058 -18.0462 -86.912 -58.4322 84.6278 -24.5874 -12.9348 -16.3444 4.24576 49.8393 -5.32897 2.46926 -0.365904 -10.8743 1.26333 -2.55397 -1.24738 -4.70131 -2.33886 0.0792162 
13.662 100.635 16.7431 174.995 -81.5099 173.53 -174.703 -5.39869 89.3038 -11.673 10.6909 0.521281 69.9547 6.90441 -2.71262 18.9702 -11.1218 9.45255 173.152 -5.76685 88.301 -13.5379 -9.88833 -0.971089 67.5232 -4.61008 0.87943 27.9232 -0.095563 1.51282 0.161284 7.89209 -90.0911 11.09 0.278812 -0.208276 -0.580921 0.269372 -0.220349 -23.1163 0.328509 -0.114854 -3.10362 0.328515 -0.114853 87.7321 -35.4312 -108.98 43.0571 7.83618 -3.94611 -5.69002 -47.2583 -5.69584 -22.1805 2.43939 -17.9979 -86.9468 -58.3061 84.5623 -24.5981 -12.9468 -16.0783 4.20692 49.4688 -5.28844 2.54403 -0.374277 -10.9732 0.997137 -2.58706 -1.93534 -4.56315 -2.29756 0.893763 
13.489 100.639 16.8038 174.276 -81.6806 172.86 -174.47 -5.18068 89.5849 -11.7366 10.9871 0.342097 69.927 6.8829 -2.72394 19.1831 -10.9675 9.43708 173.406 -5.64659 88.5969 -13.5521 -9.60052 -1.06816 67.5527 -4.60318 0.768681 27.9723 -0.0383848 1.25869 0.156027 7.88573 -90.0966 11.1026 0.265804 -0.218017 -0.568311 0.255954 -0.229518 -23.1036 0.319032 -0.128055 -3.09098 0.319038 -0.128058 87.6667 -35.6164 -109.028 43.0596 7.85645 -3.85703 -5.66143 -46.9044 -5.67684 -22.8524 2.49064 -17.8531 -86.9191 -58.0409 84.5634 -24.849 -12.8297 -15.9783 4.18124 49.1689 -5.26202 2.50375 -0.38097 -11.1846 1.06551 -2.61146 -1.70856 -4.8656 -2.33742 0.306452 
13.281 100.619 17.0137 172.414 -81.5846 171.159 -174.198 -5.27573 90.0218 -11.843 11.7619 0.261337 69.9969 7.00791 -2.28783 19.4088 -10.6419 9.17538 173.458 -5.98246 88.8398 -13.4165 -8.98859 -0.921589 67.5064 -4.44441 1.45667 28.9308 -0.113276 0.168143 0.129977 7.89425 -90.135 11.0856 0.196122 -0.287706 -0.585393 0.183264 -0.296056 -23.1205 0.27352 -0.215463 -3.10787 0.273521 -0.215459 87.6924 -35.3551 -109.081 43.3625 7.76603 -3.72163 -5.63972 -46.633 -5.66247 -23.1553 2.47093 -17.5821 -86.912 -58.5123 84.6389 -24.4483 -13.022 -16.0576 4.25808 50.0876 -5.33955 2.54388 -0.376242 -11.0177 0.997221 -2.59421 -1.67208 -4.83685 -2.33823 0.647458 
13.1049 100.613 17.1178 172.445 -81.7736 171.026 -174.244 -5.21154 89.953 -11.7236 11.5709 0.271275 70.0396 6.98367 -2.67539 19.3655 -10.8442 9.43676 173.545 -5.90951 88.8859 -13.3797 -9.39286 -1.02376 67.6331 -4.67392 0.635532 27.8241 0.0820627 1.06549 0.132367 7.86736 -90.1015 11.1393 0.216358 -0.223009 -0.531619 0.206338 -0.232317 -23.0669 0.273382 -0.147674 -3.0542 0.273381 -0.147678 87.4765 -35.7052 -109.338 43.2613 7.8538 -3.52803 -5.57085 -45.75 -5.61752 -23.5375 2.50489 -17.5401 -86.8355 -57.9858 84.6707 -24.8341 -12.8503 -15.7831 4.23613 49.8054 -5.31796 2.76872 -0.397296 -11.1866 0.773154 -2.62647 -2.06098 -4.86305 -2.32909 1.01204 
12.8472 100.583 17.3027 171.845 -81.9315 170.466 -174.102 -5.29179 90.2076 -11.4837 11.7464 0.238059 70.2578 7.14467 -2.68494 19.0874 -10.9341 9.29015 173.743 -5.96659 89.1485 -13.296 -8.71388 -1.03063 67.7312 -4.61346 1.26103 28.0863 0.0172371 0.9187 0.139121 7.86029 -90.1107 11.1535 0.225503 -0.242363 -0.517456 0.214623 -0.252057 -23.0527 0.287917 -0.163378 -3.04003 0.287914 -0.163383 87.6896 -35.7236 -108.946 42.9857 7.89706 -3.81314 -5.69159 -47.2779 -5.69693 -22.3055 2.42625 -17.8473 -86.7512 -57.8201 84.7641 -25.0717 -12.7193 -15.9873 4.28486 50.2904 -5.36902 2.8661 -0.37888 -10.6818 0.76648 -2.59369 -2.23531 -4.53003 -2.27603 1.27727 
12.5358 100.559 17.5163 172.033 -81.9202 170.618 -173.812 -5.51137 90.5662 -11.2232 11.6382 0.0881448 70.2895 7.07005 -3.11849 19.5075 -10.5312 9.10748 173.805 -5.99031 89.349 -13.4514 -8.88976 -1.02285 68.1232 -5.01868 0.416919 27.3957 0.0989188 1.58163 0.162052 7.86421 -90.131 11.1458 0.261743 -0.286305 -0.525191 0.248887 -0.297553 -23.0604 0.335683 -0.194399 -3.04779 0.335689 -0.194404 87.7174 -35.6037 -108.941 43.0349 7.89425 -3.74147 -5.67002 -47.0112 -5.68257 -22.8669 2.46105 -17.6975 -86.8072 -57.9989 84.7117 -25.1582 -12.6762 -15.9939 4.23983 49.9165 -5.32074 3.74646 -0.411362 -10.3493 0.834319 -2.55174 -1.7531 -4.74319 -2.2818 0.501657 
